<?xml version="1.0" standalone="no"?>
<!DOCTYPE svg PUBLIC "-//W3C//DTD SVG 20010904//EN"
 "http://www.w3.org/TR/2001/REC-SVG-20010904/DTD/svg10.dtd">
<svg version="1.0" xmlns="http://www.w3.org/2000/svg"
 width="995.000000pt" height="1280.000000pt" viewBox="0 0 995.000000 1280.000000"
 preserveAspectRatio="xMidYMid meet">
<g transform="translate(0.000000,1280.000000) scale(0.100000,-0.100000)"
fill="#000000" stroke="none">
<path d="M8926 12781 c-39 -26 -55 -57 -56 -107 0 -33 -9 -52 -46 -100 -25
-32 -55 -77 -66 -99 -12 -22 -50 -78 -87 -125 -36 -47 -82 -106 -101 -131 -19
-26 -97 -113 -172 -195 -75 -82 -199 -228 -274 -324 -231 -296 -258 -327 -487
-578 -145 -159 -240 -255 -277 -279 -120 -78 -240 -221 -444 -527 -65 -98
-266 -338 -332 -395 -19 -17 -45 -31 -58 -31 -30 0 -100 77 -117 127 -6 20
-22 51 -35 70 -13 19 -26 51 -30 71 -4 19 -18 51 -31 71 -14 20 -36 59 -50 86
-38 73 -115 186 -186 268 -95 112 -444 462 -527 530 -41 34 -130 112 -198 174
-68 63 -135 121 -150 130 -15 10 -66 47 -113 84 -48 37 -126 87 -174 110 -85
40 -90 42 -164 36 -149 -11 -372 -112 -576 -261 -71 -52 -162 -115 -202 -139
-39 -25 -176 -120 -305 -213 -128 -92 -280 -202 -338 -243 -58 -42 -114 -85
-126 -96 -12 -12 -45 -33 -75 -48 -30 -15 -137 -87 -239 -162 -102 -74 -213
-147 -247 -162 -70 -30 -79 -47 -52 -95 10 -18 25 -49 34 -68 9 -19 38 -69 65
-110 27 -41 52 -87 55 -102 4 -15 17 -34 30 -42 12 -8 26 -27 29 -43 4 -15 30
-59 57 -97 28 -37 55 -79 60 -93 5 -13 31 -47 58 -76 26 -29 56 -66 64 -83 20
-39 193 -270 262 -349 28 -33 67 -85 87 -115 19 -30 70 -98 114 -150 102 -122
128 -156 205 -267 35 -50 95 -128 134 -173 66 -77 167 -170 186 -170 4 0 43
32 86 71 43 39 128 104 188 144 61 40 145 99 187 131 42 33 123 83 180 113 57
30 117 64 134 77 18 13 56 34 85 47 30 13 90 47 133 76 92 60 373 203 556 284
135 59 276 97 361 97 109 0 206 -71 362 -265 122 -152 255 -437 288 -620 6
-33 20 -76 31 -95 12 -19 27 -62 33 -95 7 -33 22 -98 33 -145 12 -47 26 -123
31 -168 13 -100 42 -162 84 -173 15 -4 84 -11 152 -15 95 -5 125 -4 125 5 0
23 -50 211 -69 259 -10 26 -22 76 -26 112 -4 36 -16 88 -27 115 -11 28 -24 74
-29 104 -4 29 -17 71 -28 92 -11 21 -25 66 -30 99 -6 33 -19 74 -31 90 -16 23
-23 53 -29 132 -5 57 -17 123 -26 147 -17 41 -17 46 -1 92 10 27 23 104 30
171 6 68 15 129 20 136 12 19 115 68 171 80 28 6 79 14 115 18 36 3 90 14 120
25 30 10 78 21 105 24 28 4 77 17 110 30 33 12 93 26 134 30 41 3 96 15 123
26 27 10 81 24 121 30 39 6 94 20 120 30 31 13 96 23 180 30 73 5 177 19 232
29 55 11 127 25 160 31 33 7 76 20 96 30 19 10 64 20 100 24 133 13 311 58
374 95 19 11 63 20 120 24 50 4 128 16 175 27 47 11 124 24 172 29 47 6 109
19 138 30 31 12 74 20 111 20 66 0 129 21 129 44 0 22 -63 99 -93 114 -37 18
-79 4 -152 -53 -32 -25 -58 -45 -59 -46 0 0 -62 -4 -136 -9 -93 -6 -155 -15
-200 -30 -44 -15 -108 -24 -197 -30 -134 -9 -478 -69 -543 -95 -19 -8 -69 -17
-110 -20 -41 -4 -122 -17 -180 -30 -58 -13 -130 -26 -160 -30 -30 -3 -89 -16
-130 -29 -61 -19 -107 -24 -250 -29 -188 -7 -213 -12 -475 -97 -66 -21 -198
-55 -293 -74 -149 -31 -178 -34 -200 -24 -44 22 -66 62 -70 133 -5 79 5 96
124 227 47 51 172 201 279 333 106 132 230 284 276 337 46 53 96 116 111 140
27 43 203 243 482 548 237 258 256 280 315 360 31 41 75 99 98 128 23 29 52
80 64 112 12 33 28 65 36 72 8 6 20 25 27 42 8 17 48 73 90 124 42 52 76 98
76 103 0 5 17 28 38 52 21 23 76 90 121 149 96 126 124 151 211 190 36 16 73
37 82 45 42 38 8 98 -83 143 -69 35 -75 36 -113 11z"/>
<path d="M2375 10110 c-9 -10 -33 -24 -51 -30 -19 -6 -46 -26 -61 -45 -16 -18
-163 -155 -328 -305 -165 -149 -312 -290 -327 -312 -36 -53 -35 -83 3 -171 26
-59 31 -79 26 -123 -7 -66 -41 -133 -116 -226 -33 -41 -63 -86 -66 -101 -10
-39 13 -156 39 -202 13 -22 26 -55 29 -72 4 -18 17 -50 31 -70 13 -21 27 -58
30 -83 4 -25 16 -60 27 -78 11 -19 24 -56 30 -83 6 -28 33 -96 59 -152 27 -56
52 -119 55 -140 13 -66 27 -75 145 -86 58 -6 200 -15 315 -21 116 -6 334 -17
485 -26 171 -10 382 -14 558 -12 l284 3 111 115 c144 148 277 297 277 310 0 5
-32 46 -71 91 -161 182 -409 484 -423 514 -20 41 -112 125 -137 125 -10 0 -33
-13 -51 -29 -18 -15 -43 -33 -56 -40 -20 -11 -159 -125 -315 -261 -67 -57 -97
-63 -159 -28 -44 25 -82 81 -186 275 -38 70 -84 152 -103 180 -85 131 -109
172 -109 183 0 7 -17 38 -39 69 -78 115 -88 159 -51 232 25 49 87 119 106 119
18 0 261 226 269 250 9 30 -26 90 -119 203 -44 53 -80 62 -111 27z"/>
<path d="M2618 9750 c-62 -66 -60 -74 112 -336 244 -374 347 -514 380 -514 30
0 80 60 80 96 0 36 -55 125 -137 220 -28 33 -74 102 -103 154 -87 157 -267
420 -288 420 -3 0 -22 -18 -44 -40z"/>
<path d="M2395 9538 c-29 -16 -55 -50 -54 -73 0 -11 13 -38 29 -59 17 -22 30
-43 30 -47 0 -4 12 -20 26 -36 30 -33 142 -219 189 -315 18 -37 53 -93 78
-125 25 -32 52 -75 61 -95 19 -47 59 -88 86 -88 21 0 100 65 100 82 0 9 -49
93 -175 302 -27 46 -86 142 -130 215 -82 138 -175 251 -203 251 -10 0 -26 -6
-37 -12z"/>
<path d="M1427 7681 c-80 -12 -81 -15 -57 -185 21 -153 34 -224 44 -233 20
-20 1846 -48 2546 -39 300 4 586 2 750 -4 146 -6 670 -15 1165 -20 835 -7
1136 -17 1275 -40 30 -6 105 -17 165 -25 61 -9 157 -25 215 -35 127 -24 164
-25 184 -4 20 19 23 36 31 154 5 76 11 103 31 138 19 32 23 46 15 56 -16 19
-133 54 -220 66 -41 6 -95 17 -120 26 -45 15 -108 23 -475 64 -172 19 -290 22
-1350 32 -638 7 -1325 12 -1526 13 -201 0 -435 6 -521 13 -88 7 -517 16 -980
22 -901 11 -1100 11 -1172 1z"/>
<path d="M231 7165 c-62 -71 -231 -336 -231 -362 0 -6 24 -20 53 -32 31 -13
84 -51 131 -93 44 -39 111 -94 150 -122 274 -200 399 -289 451 -319 103 -61
688 -500 711 -534 32 -47 66 -293 140 -1008 13 -131 31 -268 39 -303 8 -35 20
-125 25 -200 5 -76 14 -164 20 -197 14 -87 38 -325 50 -515 6 -91 16 -178 21
-195 6 -16 17 -143 25 -282 8 -138 21 -287 29 -330 9 -43 20 -159 25 -258 6
-99 17 -216 25 -260 8 -44 21 -173 30 -286 9 -114 23 -233 31 -265 8 -33 21
-144 29 -248 8 -103 21 -225 29 -270 9 -44 18 -97 21 -117 10 -68 25 -74 221
-77 l174 -4 0 69 c0 39 -9 94 -20 131 -13 41 -23 117 -30 220 -15 232 -27 346
-70 657 -35 248 -50 413 -50 550 0 55 -4 138 -9 185 -47 429 -64 567 -80 640
-11 47 -22 135 -26 195 -3 61 -17 205 -30 320 -13 116 -26 262 -30 325 -3 63
-15 184 -25 268 -11 84 -24 232 -30 330 -6 97 -18 213 -26 257 -8 44 -24 179
-35 300 -44 496 -71 733 -89 790 -10 34 -21 112 -25 175 -4 63 -13 143 -21
178 -7 34 -25 168 -39 298 -25 233 -37 285 -70 298 -9 3 -77 6 -150 6 -108 0
-137 -3 -149 -16 -24 -23 -22 -214 4 -335 23 -108 25 -172 8 -186 -51 -40
-112 -21 -272 87 -72 48 -176 112 -230 140 -54 29 -123 75 -154 102 -30 26
-72 53 -92 58 -21 6 -43 17 -51 26 -7 8 -26 22 -43 31 -17 8 -72 46 -123 84
-76 57 -192 129 -207 129 -2 0 -18 -16 -35 -35z"/>
<path d="M2126 7065 c-21 -22 -22 -197 -1 -345 9 -58 24 -199 35 -315 11 -115
29 -257 40 -315 10 -58 21 -166 25 -240 3 -74 13 -191 21 -260 8 -69 23 -215
34 -324 11 -110 27 -225 35 -255 8 -31 21 -157 30 -281 9 -124 23 -254 31
-290 9 -39 18 -156 23 -295 5 -128 14 -243 20 -259 23 -58 31 -119 40 -322 6
-115 19 -267 30 -339 11 -71 23 -193 26 -270 4 -77 13 -171 21 -210 17 -87 31
-237 39 -425 4 -80 13 -203 21 -275 8 -71 24 -227 35 -345 10 -118 26 -254 34
-302 9 -48 20 -172 24 -275 9 -176 10 -188 31 -205 27 -22 42 -22 110 -2 44
13 80 15 197 9 l143 -7 11 28 c7 20 9 89 4 219 -4 105 -8 222 -9 260 -1 39 -8
84 -15 100 -9 20 -16 111 -22 270 -8 228 -17 344 -39 515 -17 136 -30 344 -40
641 -6 162 -15 328 -20 369 -5 41 -19 237 -30 435 -55 975 -73 1246 -86 1267
-3 5 -12 162 -20 351 -7 188 -18 360 -24 382 -5 22 -19 159 -30 305 -11 146
-25 294 -31 330 -24 154 -28 194 -39 370 -15 260 -16 268 -49 274 -14 3 -127
8 -251 11 -204 6 -277 13 -322 30 -8 3 -23 -1 -32 -10z"/>
<path d="M6422 7052 c-33 -45 -51 -120 -61 -247 -6 -66 -17 -154 -26 -195 -9
-41 -25 -169 -35 -285 -11 -115 -27 -248 -34 -295 -8 -47 -18 -123 -21 -169
-3 -46 -15 -129 -26 -185 -11 -56 -24 -152 -29 -215 -6 -63 -19 -153 -30 -200
-11 -46 -25 -146 -30 -221 -5 -74 -13 -148 -19 -163 -6 -15 -20 -103 -31 -195
-11 -92 -26 -188 -35 -212 -8 -25 -21 -106 -29 -180 -8 -74 -20 -148 -26 -165
-6 -16 -20 -109 -30 -205 -11 -97 -28 -214 -39 -260 -11 -47 -22 -121 -26
-165 -4 -44 -15 -122 -26 -174 -11 -52 -24 -155 -29 -230 -6 -75 -17 -158 -25
-186 -9 -27 -27 -144 -41 -260 -13 -115 -42 -318 -64 -450 -21 -132 -42 -296
-46 -365 -3 -69 -13 -150 -21 -180 -8 -30 -23 -125 -33 -210 -11 -85 -29 -201
-40 -258 -24 -124 -27 -258 -5 -289 19 -27 97 -34 260 -22 150 11 177 18 193
52 7 14 24 99 37 189 37 242 71 435 89 506 9 35 21 109 26 166 5 58 18 124 29
153 11 27 24 91 30 141 5 50 16 104 25 119 15 30 30 106 41 208 3 33 13 81 21
106 8 25 21 97 28 160 8 63 18 126 24 140 6 14 18 77 27 138 9 62 23 131 31
154 8 23 22 91 30 152 8 60 24 142 35 181 10 39 23 125 28 190 5 66 15 132 21
149 15 41 34 146 65 363 14 100 36 228 49 285 13 56 34 176 45 267 12 91 37
242 56 335 19 94 43 244 55 335 11 91 27 189 36 218 8 29 19 99 24 155 5 56
18 128 29 159 12 31 23 90 27 130 3 40 14 119 25 175 21 107 39 285 39 390 0
35 9 89 19 120 10 32 29 102 42 157 21 92 21 99 6 111 -28 20 -294 67 -412 73
-69 3 -117 10 -130 18 -32 23 -71 17 -93 -14z"/>
<path d="M3162 7032 c-10 -27 16 -746 28 -777 7 -18 15 -142 21 -315 6 -194
14 -304 25 -345 10 -39 13 -78 8 -113 -3 -29 -1 -87 5 -130 6 -42 15 -210 21
-372 6 -162 15 -351 20 -420 10 -143 26 -561 40 -1083 6 -197 15 -390 22 -428
9 -55 8 -85 -2 -140 -12 -62 -12 -76 3 -117 23 -63 34 -207 47 -587 6 -176 15
-394 20 -485 5 -91 15 -291 21 -445 6 -154 15 -289 19 -301 12 -32 96 -37 432
-29 l288 8 -1 1691 c0 930 -5 2170 -11 2756 -7 586 -12 1193 -13 1350 l-1 285
-55 2 c-29 2 -251 4 -493 5 -358 3 -439 1 -444 -10z"/>
<path d="M4936 7031 c-14 -22 -25 -184 -36 -511 -6 -184 -17 -456 -25 -605 -8
-148 -22 -443 -30 -655 -9 -212 -22 -497 -30 -635 -8 -137 -19 -403 -25 -590
-5 -187 -12 -353 -14 -370 -31 -176 -38 -259 -46 -542 -5 -176 -16 -358 -24
-408 -8 -49 -19 -198 -26 -330 -14 -292 -27 -502 -40 -615 -5 -47 -12 -261
-16 -477 l-7 -392 29 -8 c16 -4 155 -8 309 -8 l280 0 3 45 c1 25 13 108 27
185 13 77 27 185 31 240 4 55 13 120 20 145 8 25 21 113 29 195 9 83 25 215
36 295 12 80 24 217 29 305 7 124 13 172 29 213 16 40 24 92 30 200 6 84 18
182 30 227 11 45 24 146 30 230 5 83 15 163 21 179 6 16 19 108 30 205 11 97
28 226 39 286 10 61 22 164 26 230 4 66 15 165 26 220 11 55 24 170 30 255 6
85 17 180 24 210 16 61 65 440 90 695 8 88 26 246 39 350 14 105 27 242 31
305 3 63 15 153 26 200 14 62 22 147 28 315 6 178 12 239 24 269 20 46 22 86
4 110 -18 24 -141 32 -633 41 -279 5 -393 4 -398 -4z"/>
<path d="M7459 6922 l-96 -3 -11 -93 c-7 -52 -20 -138 -31 -193 -10 -54 -22
-136 -26 -181 -3 -46 -13 -102 -21 -124 -8 -22 -27 -147 -44 -277 -32 -247
-36 -277 -75 -456 -13 -60 -28 -157 -34 -215 -6 -58 -19 -130 -30 -160 -11
-30 -22 -93 -26 -140 -4 -47 -15 -110 -25 -140 -10 -30 -23 -95 -30 -145 -6
-49 -18 -110 -25 -135 -8 -25 -21 -101 -30 -170 -18 -136 -28 -191 -46 -236
-6 -16 -15 -75 -19 -131 -5 -59 -16 -115 -25 -133 -9 -18 -32 -120 -50 -228
-55 -318 -124 -683 -140 -732 -7 -25 -17 -79 -21 -120 -4 -47 -15 -92 -29
-120 -17 -33 -25 -71 -30 -140 -4 -52 -16 -122 -27 -155 -11 -33 -24 -89 -29
-125 -5 -36 -19 -89 -30 -119 -11 -30 -38 -158 -59 -285 -22 -127 -49 -256
-59 -286 -11 -30 -25 -94 -31 -142 -6 -48 -19 -114 -29 -145 -10 -32 -22 -87
-26 -123 -3 -36 -18 -100 -31 -143 -17 -56 -24 -101 -24 -161 l0 -83 108 -6
c59 -4 132 -13 162 -22 88 -24 109 -21 125 19 8 18 31 123 50 232 20 110 52
269 70 354 19 85 38 200 44 255 5 58 18 123 31 154 13 34 25 95 30 161 6 58
19 133 30 165 11 32 23 97 26 144 3 47 16 124 30 171 13 47 28 132 34 190 5
58 19 136 30 175 11 38 38 179 60 313 22 134 49 283 60 332 11 50 20 103 20
120 0 17 7 47 15 67 8 19 24 101 35 182 11 80 27 172 35 204 19 70 85 450 92
527 3 30 15 87 28 125 12 39 26 108 30 155 3 47 17 120 31 164 26 83 55 214
74 331 6 39 22 94 36 122 23 48 34 58 122 109 53 32 169 101 257 154 88 53
201 118 250 145 166 90 509 297 610 369 143 101 305 227 305 238 0 4 -11 25
-24 46 -13 20 -27 54 -30 75 -5 23 -25 58 -55 95 -27 32 -56 72 -65 89 -16 33
-83 93 -102 93 -6 0 -31 -13 -55 -30 -24 -16 -50 -30 -58 -30 -16 0 -177 -103
-231 -148 -41 -34 -185 -121 -350 -212 -106 -58 -314 -190 -402 -255 -30 -22
-40 -25 -57 -16 -40 22 -40 99 0 266 11 50 27 134 34 188 10 77 18 103 35 123
23 23 23 24 5 44 -51 56 -99 67 -266 62z"/>
<path d="M1852 733 c-56 -3 -85 -8 -88 -17 -3 -7 9 -100 25 -207 16 -107 33
-229 37 -272 10 -108 20 -120 136 -143 86 -18 145 -19 758 -18 366 0 845 2
1065 3 410 4 715 -10 975 -43 270 -34 343 -39 563 -33 267 7 475 23 569 42 83
18 321 20 571 5 154 -10 210 -16 299 -36 22 -5 29 -1 42 25 26 49 57 194 66
310 5 59 16 127 26 151 9 25 17 63 18 85 1 36 -2 42 -34 57 -40 20 -205 41
-450 58 -123 9 -240 9 -455 1 -441 -17 -1207 -14 -1327 4 -214 32 -923 47
-1178 25 -195 -17 -788 -24 -1062 -11 -368 16 -461 18 -556 14z"/>
</g>
</svg>
